# Blender 3.6.3
# www.blender.org
mtllib Object.mtl
o QPieceCrossing
v -0.500000 -0.000000 0.500000
v -0.250000 -0.000000 0.500000
v 0.250000 0.000000 0.500000
v 0.500000 0.000000 0.500000
v -0.500000 -0.000000 0.250000
v -0.250000 -0.000000 0.250000
v 0.250000 0.000000 0.250000
v 0.500000 0.000000 0.250000
v -0.500000 -0.000000 -0.250000
v -0.250000 -0.000000 -0.250000
v 0.250000 0.000000 -0.250000
v 0.500000 0.000000 -0.250000
v -0.250000 -0.000000 -0.500000
v 0.250000 0.000000 -0.500000
v -0.500000 1.000000 0.250000
v -0.500000 1.000000 0.500000
v -0.250000 1.000000 0.500000
v -0.250000 1.000000 0.250000
v 0.250000 1.000000 0.250000
v 0.250000 1.000000 0.500000
v 0.500000 1.000000 0.500000
v 0.500000 1.000000 0.250000
v -0.500000 1.000000 -0.250000
v -0.250000 1.000000 -0.250000
v -0.250000 1.000000 -0.500000
v -0.500000 1.000000 -0.500000
v 0.250000 1.000000 -0.250000
v 0.500000 1.000000 -0.250000
v 0.500000 1.000000 -0.500000
v 0.250000 1.000000 -0.500000
v -0.500000 -0.000000 -0.500000
v 0.500000 0.000000 -0.500000
v -0.250000 -0.000000 0.250000
v 0.250000 0.000000 0.250000
v -0.250000 -0.000000 -0.250000
v 0.250000 0.000000 -0.250000
v -0.250000 -0.000000 -0.500000
v 0.250000 0.000000 -0.500000
v 0.500000 0.000000 0.250000
v 0.500000 0.000000 -0.250000
v -0.500000 -0.000000 0.250000
v -0.500000 -0.000000 -0.250000
v -0.250000 -0.000000 0.500000
v 0.250000 0.000000 0.500000
vn -0.0000 1.0000 -0.0000
vn -1.0000 -0.0000 -0.0000
vn -0.0000 -0.0000 1.0000
vn 1.0000 -0.0000 -0.0000
vn -0.0000 -0.0000 -1.0000
vt 0.004510 0.633133
vt 0.004510 0.512362
vt 0.125281 0.512362
vt 0.125281 0.633133
vt 0.366821 0.633133
vt 0.366821 0.512362
vt 0.487592 0.512362
vt 0.487592 0.633133
vt 0.875049 0.633344
vt 0.875049 0.874804
vt 0.633589 0.874804
vt 0.633589 0.633344
vt 0.004510 0.995442
vt 0.004510 0.874673
vt 0.125281 0.874673
vt 0.125281 0.995442
vt 0.366821 0.995442
vt 0.366821 0.874673
vt 0.487591 0.874673
vt 0.487591 0.995442
vt 0.905041 0.004416
vt 0.995574 0.004416
vt 0.995574 0.366550
vt 0.905041 0.366550
vt 0.633440 0.004416
vt 0.723974 0.004416
vt 0.723974 0.366550
vt 0.633440 0.366550
vt 0.004502 0.004460
vt 0.114781 0.004460
vt 0.114781 0.450089
vt 0.004502 0.450089
vt 0.337518 0.004460
vt 0.449838 0.004460
vt 0.449838 0.450089
vt 0.337518 0.450089
vt 0.875049 0.995534
vt 0.633589 0.995534
vt 0.995779 0.633344
vt 0.995779 0.874804
vt 0.512859 0.874804
vt 0.512858 0.633344
vt 0.633589 0.512614
vt 0.875049 0.512614
s 1
usemtl 02_-_Default
f 15/1/1 16/2/1 17/3/1 18/4/1
f 19/5/1 20/6/1 21/7/1 22/8/1
f 34/9/1 36/10/1 35/11/1 33/12/1
f 26/13/1 23/14/1 24/15/1 25/16/1
f 30/17/1 27/18/1 28/19/1 29/20/1
f 5/21/2 1/22/2 16/23/2 15/24/2
f 1/25/3 2/26/3 17/27/3 16/28/3
f 2/29/4 6/30/4 18/31/4 17/32/4
f 6/33/5 5/34/5 15/35/5 18/36/5
f 7/33/2 3/34/2 20/35/2 19/36/2
f 3/21/3 4/22/3 21/23/3 20/24/3
f 4/25/4 8/26/4 22/27/4 21/28/4
f 8/29/5 7/30/5 19/31/5 22/32/5
f 9/29/3 10/30/3 24/31/3 23/32/3
f 10/33/4 13/34/4 25/35/4 24/36/4
f 13/21/5 31/22/5 26/23/5 25/24/5
f 31/25/2 9/26/2 23/27/2 26/28/2
f 11/33/3 12/34/3 28/35/3 27/36/3
f 12/21/4 32/22/4 29/23/4 28/24/4
f 32/25/5 14/26/5 30/27/5 29/28/5
f 14/29/2 11/30/2 27/31/2 30/32/2
f 35/11/1 36/10/1 38/37/1 37/38/1
f 36/10/1 34/9/1 39/39/1 40/40/1
f 33/12/1 35/11/1 42/41/1 41/42/1
f 34/9/1 33/12/1 43/43/1 44/44/1
